<svg width="333" height="36" viewBox="0 0 333 36" fill="none" xmlns="http://www.w3.org/2000/svg">
<g filter="url(#filter0_d_39_4)">
<path d="M31.1139 13.477C31.1139 14.245 31.0659 15.045 30.9699 15.877H12.3939C12.5219 17.541 13.0499 18.821 13.9779 19.717C14.9379 20.581 16.1059 21.013 17.4819 21.013C19.5299 21.013 20.9539 20.149 21.7539 18.421H30.4899C30.0419 20.181 29.2259 21.765 28.0419 23.173C26.8899 24.581 25.4339 25.685 23.6739 26.485C21.9139 27.285 19.9459 27.685 17.7699 27.685C15.1459 27.685 12.8099 27.125 10.7619 26.005C8.71389 24.885 7.11389 23.285 5.96189 21.205C4.80989 19.125 4.23389 16.693 4.23389 13.909C4.23389 11.125 4.79389 8.69302 5.91389 6.61302C7.06589 4.53302 8.66589 2.93302 10.7139 1.81302C12.7619 0.693024 15.1139 0.133023 17.7699 0.133023C20.3619 0.133023 22.6659 0.677024 24.6819 1.76503C26.6979 2.85302 28.2659 4.40502 29.3859 6.42102C30.5379 8.43702 31.1139 10.789 31.1139 13.477ZM22.7139 11.317C22.7139 9.90903 22.2339 8.78902 21.2739 7.95702C20.3139 7.12502 19.1139 6.70902 17.6739 6.70902C16.2979 6.70902 15.1299 7.10902 14.1699 7.90902C13.2419 8.70902 12.6659 9.84503 12.4419 11.317H22.7139ZM56.084 7.04502V13.861H34.964V7.04502H56.084ZM61.6558 13.909C61.6558 11.125 62.2158 8.69302 63.3358 6.61302C64.4878 4.53302 66.0718 2.93302 68.0878 1.81302C70.1358 0.693024 72.4718 0.133023 75.0958 0.133023C78.4558 0.133023 81.2558 1.01302 83.4958 2.77302C85.7678 4.53302 87.2558 7.01302 87.9598 10.213H79.2238C78.4878 8.16502 77.0638 7.14102 74.9518 7.14102C73.4478 7.14102 72.2478 7.73302 71.3518 8.91702C70.4558 10.069 70.0078 11.733 70.0078 13.909C70.0078 16.085 70.4558 17.765 71.3518 18.949C72.2478 20.101 73.4478 20.677 74.9518 20.677C77.0638 20.677 78.4878 19.653 79.2238 17.605H87.9598C87.2558 20.741 85.7678 23.205 83.4958 24.997C81.2238 26.789 78.4238 27.685 75.0958 27.685C72.4718 27.685 70.1358 27.125 68.0878 26.005C66.0718 24.885 64.4878 23.285 63.3358 21.205C62.2158 19.125 61.6558 16.693 61.6558 13.909ZM104.542 27.685C101.918 27.685 99.5503 27.125 97.4383 26.005C95.3583 24.885 93.7103 23.285 92.4943 21.205C91.3103 19.125 90.7183 16.693 90.7183 13.909C90.7183 11.157 91.3263 8.74102 92.5423 6.66103C93.7583 4.54902 95.4223 2.93302 97.5343 1.81302C99.6463 0.693024 102.014 0.133023 104.638 0.133023C107.262 0.133023 109.63 0.693024 111.742 1.81302C113.854 2.93302 115.518 4.54902 116.734 6.66103C117.95 8.74102 118.558 11.157 118.558 13.909C118.558 16.661 117.934 19.093 116.686 21.205C115.47 23.285 113.79 24.885 111.646 26.005C109.534 27.125 107.166 27.685 104.542 27.685ZM104.542 20.581C106.11 20.581 107.438 20.005 108.526 18.853C109.646 17.701 110.206 16.053 110.206 13.909C110.206 11.765 109.662 10.117 108.574 8.96502C107.518 7.81302 106.206 7.23702 104.638 7.23702C103.038 7.23702 101.71 7.81302 100.654 8.96502C99.5983 10.085 99.0703 11.733 99.0703 13.909C99.0703 16.053 99.5823 17.701 100.606 18.853C101.662 20.005 102.974 20.581 104.542 20.581ZM157.089 0.229025C160.417 0.229025 163.057 1.23702 165.009 3.25302C166.993 5.26902 167.985 8.06902 167.985 11.653V27.301H159.825V12.757C159.825 11.029 159.361 9.70102 158.433 8.77303C157.537 7.81302 156.289 7.33302 154.689 7.33302C153.089 7.33302 151.825 7.81302 150.897 8.77303C150.001 9.70102 149.553 11.029 149.553 12.757V27.301H141.393V12.757C141.393 11.029 140.929 9.70102 140.001 8.77303C139.105 7.81302 137.857 7.33302 136.257 7.33302C134.657 7.33302 133.393 7.81302 132.465 8.77303C131.569 9.70102 131.121 11.029 131.121 12.757V27.301H122.913V0.517024H131.121V3.87702C131.953 2.75702 133.041 1.87702 134.385 1.23702C135.729 0.565024 137.249 0.229025 138.945 0.229025C140.961 0.229025 142.753 0.661025 144.321 1.52503C145.921 2.38902 147.169 3.62102 148.065 5.22102C148.993 3.74902 150.257 2.54902 151.857 1.62102C153.457 0.693025 155.201 0.229025 157.089 0.229025ZM207.901 0.229025C211.229 0.229025 213.869 1.23702 215.821 3.25302C217.805 5.26902 218.797 8.06902 218.797 11.653V27.301H210.637V12.757C210.637 11.029 210.173 9.70102 209.245 8.77303C208.349 7.81302 207.101 7.33302 205.501 7.33302C203.901 7.33302 202.637 7.81302 201.709 8.77303C200.813 9.70102 200.365 11.029 200.365 12.757V27.301H192.205V12.757C192.205 11.029 191.741 9.70102 190.813 8.77303C189.917 7.81302 188.669 7.33302 187.069 7.33302C185.469 7.33302 184.205 7.81302 183.277 8.77303C182.381 9.70102 181.933 11.029 181.933 12.757V27.301H173.725V0.517024H181.933V3.87702C182.765 2.75702 183.853 1.87702 185.197 1.23702C186.541 0.565024 188.061 0.229025 189.757 0.229025C191.773 0.229025 193.565 0.661025 195.133 1.52503C196.733 2.38902 197.981 3.62102 198.877 5.22102C199.805 3.74902 201.069 2.54902 202.669 1.62102C204.269 0.693025 206.013 0.229025 207.901 0.229025ZM249.786 13.477C249.786 14.245 249.738 15.045 249.642 15.877H231.066C231.194 17.541 231.722 18.821 232.65 19.717C233.61 20.581 234.778 21.013 236.154 21.013C238.202 21.013 239.626 20.149 240.426 18.421H249.162C248.714 20.181 247.898 21.765 246.714 23.173C245.562 24.581 244.106 25.685 242.346 26.485C240.586 27.285 238.618 27.685 236.442 27.685C233.818 27.685 231.482 27.125 229.434 26.005C227.386 24.885 225.786 23.285 224.634 21.205C223.482 19.125 222.906 16.693 222.906 13.909C222.906 11.125 223.466 8.69302 224.586 6.61302C225.738 4.53302 227.338 2.93302 229.386 1.81302C231.434 0.693024 233.786 0.133023 236.442 0.133023C239.034 0.133023 241.338 0.677024 243.354 1.76503C245.37 2.85302 246.938 4.40502 248.058 6.42102C249.21 8.43702 249.786 10.789 249.786 13.477ZM241.386 11.317C241.386 9.90903 240.906 8.78902 239.946 7.95702C238.986 7.12502 237.786 6.70902 236.346 6.70902C234.97 6.70902 233.802 7.10902 232.842 7.90902C231.914 8.70902 231.338 9.84503 231.114 11.317H241.386ZM262.324 4.98102C263.284 3.50902 264.484 2.35702 265.924 1.52503C267.364 0.661025 268.964 0.229025 270.724 0.229025V8.91702H268.468C266.42 8.91702 264.884 9.36502 263.86 10.261C262.836 11.125 262.324 12.661 262.324 14.869V27.301H254.116V0.517024H262.324V4.98102ZM273.015 13.909C273.015 11.125 273.575 8.69302 274.695 6.61302C275.847 4.53302 277.431 2.93302 279.447 1.81302C281.495 0.693024 283.831 0.133023 286.455 0.133023C289.815 0.133023 292.615 1.01302 294.855 2.77302C297.127 4.53302 298.615 7.01302 299.319 10.213H290.583C289.847 8.16502 288.423 7.14102 286.311 7.14102C284.807 7.14102 283.607 7.73302 282.711 8.91702C281.815 10.069 281.367 11.733 281.367 13.909C281.367 16.085 281.815 17.765 282.711 18.949C283.607 20.101 284.807 20.677 286.311 20.677C288.423 20.677 289.847 19.653 290.583 17.605H299.319C298.615 20.741 297.127 23.205 294.855 24.997C292.583 26.789 289.783 27.685 286.455 27.685C283.831 27.685 281.495 27.125 279.447 26.005C277.431 24.885 275.847 23.285 274.695 21.205C273.575 19.125 273.015 16.693 273.015 13.909ZM328.958 13.477C328.958 14.245 328.91 15.045 328.814 15.877H310.238C310.366 17.541 310.894 18.821 311.822 19.717C312.782 20.581 313.95 21.013 315.326 21.013C317.374 21.013 318.798 20.149 319.598 18.421H328.334C327.886 20.181 327.07 21.765 325.886 23.173C324.734 24.581 323.278 25.685 321.518 26.485C319.758 27.285 317.79 27.685 315.614 27.685C312.99 27.685 310.654 27.125 308.606 26.005C306.558 24.885 304.958 23.285 303.806 21.205C302.654 19.125 302.078 16.693 302.078 13.909C302.078 11.125 302.638 8.69302 303.758 6.61302C304.91 4.53302 306.51 2.93302 308.558 1.81302C310.606 0.693024 312.958 0.133023 315.614 0.133023C318.206 0.133023 320.51 0.677024 322.526 1.76503C324.542 2.85302 326.11 4.40502 327.23 6.42102C328.382 8.43702 328.958 10.789 328.958 13.477ZM320.558 11.317C320.558 9.90903 320.078 8.78902 319.118 7.95702C318.158 7.12502 316.958 6.70902 315.518 6.70902C314.142 6.70902 312.974 7.10902 312.014 7.90902C311.086 8.70902 310.51 9.84503 310.286 11.317H320.558Z" fill="#2D719D"/>
</g>
<defs>
<filter id="filter0_d_39_4" x="0.233887" y="0.133026" width="332.724" height="35.552" filterUnits="userSpaceOnUse" color-interpolation-filters="sRGB">
<feFlood flood-opacity="0" result="BackgroundImageFix"/>
<feColorMatrix in="SourceAlpha" type="matrix" values="0 0 0 0 0 0 0 0 0 0 0 0 0 0 0 0 0 0 127 0" result="hardAlpha"/>
<feOffset dy="4"/>
<feGaussianBlur stdDeviation="2"/>
<feComposite in2="hardAlpha" operator="out"/>
<feColorMatrix type="matrix" values="0 0 0 0 0 0 0 0 0 0 0 0 0 0 0 0 0 0 0.15 0"/>
<feBlend mode="normal" in2="BackgroundImageFix" result="effect1_dropShadow_39_4"/>
<feBlend mode="normal" in="SourceGraphic" in2="effect1_dropShadow_39_4" result="shape"/>
</filter>
</defs>
</svg>
